<?xml version="1.0" encoding="UTF-8"?>
<svg id="Capa_1" data-name="Capa 1" xmlns="http://www.w3.org/2000/svg" viewBox="0 0 52 46">
  <defs>
    <style>
      .cls-1 {
        fill-rule: evenodd;
      }

      .cls-1, .cls-2 {
        stroke-width: 0px;
      }
    </style>
  </defs>
  <path class="cls-1" d="m32.02,13.88c.83-.77,1.67-1.55,2.53-2.34-.02-.03-.04-.06-.06-.08-.02-.03-.04-.05-.05-.07-.96-1.18-2.22-1.92-3.63-2.41-1.78-.62-3.6-.67-5.44-.33-2.05.39-3.82,1.31-5.2,2.92-1.33,1.55-2.04,3.34-2.10,5.38-.04,1.65.24,3.24,1.01,4.72,1.03,1.98,2.7,3.26,4.75,4.06,1.52.59,3.1.71,4.72.56,1.49-.14,2.88-.55,4.14-1.36.71-.46,1.33-1.02,1.88-1.67-.37-.34-.74-.69-1.11-1.03-.48-.44-.96-.89-1.44-1.33-2.45,2.81-6.39,2.41-8.33.51-2-1.97-2.06-5.69-.21-7.80,1.84-2.1,6.12-2.61,8.53.28h0Zm3.88-5.1v17.26h8.94c1.07,0,2.14-.08,3.18-.36.97-.27,1.88-.65,2.59-1.40.76-.8,1.06-1.79,1.09-2.88.05-1.72-.64-3.02-2.13-3.89-.19-.11-.38-.21-.59-.31h0c-.11-.05-.22-.11-.33-.16.07-.05.14-.09.2-.14h0s0,0,0,0c.08-.05.15-.11.23-.15,2.41-1.59,2.49-5.66-.41-7.09-1.24-.61-2.55-.89-3.92-.89-2.05-.01-4.1,0-6.16,0-.82,0-1.64,0-2.46,0-.05,0-.09,0-.14.01-.03,0-.07,0-.1,0Zm3.97,10.31v-.28s.09-.01.13-.02c.06-.01.12-.02.17-.02.39,0,.78,0,1.16,0h0c1.29,0,2.59,0,3.88.04.43,0,.87.14,1.27.29.87.33,1.25,1,1.19,2.03-.04.79-.58,1.46-1.43,1.66-.59.14-1.21.21-1.82.22-.87.02-1.73.02-2.60.01-.55,0-1.10,0-1.65,0-.25,0-.32-.08-.32-.33,0-.9,0-1.81,0-2.72h0c0-.3,0-.6,0-.91Zm0-3.26h0v-1.59c0-.18,0-.36,0-.54,0-.54,0-1.08,0-1.63,0-.2.06-.28.26-.28.49,0,.98,0,1.47,0h0c1.05,0,2.10,0,3.14.04.88.03,1.64.41,1.99,1.30.38.93-.08,2.01-1.02,2.34-.53.19-1.12.32-1.68.34-.96.04-1.93.03-2.89.02-.36,0-.72,0-1.09,0-.04,0-.09,0-.17-.01h0Zm-20.22,10.29h-.28c-.29,0-.58,0-.87,0h0c-.87,0-1.74,0-2.61,0-.26,0-.39-.1-.49-.34-.51-1.24-1.02-2.48-1.52-3.71l-.02-.04h0c-1.76-4.3-3.53-8.6-5.3-12.9-.03-.06-.05-.13-.07-.2h0s-.02-.07-.03-.11h.52c.87,0,1.74,0,2.61,0,.25,0,.41.09.51.32.28.62.55,1.24.83,1.87h0c.9,2.02,1.8,4.04,2.7,6.06.63,1.42,1.27,2.84,1.9,4.26.64,1.42,1.27,2.84,1.9,4.26.04.09.07.18.11.27h0c.03.08.07.17.11.26ZM3.63,18.54h0c1.09-2.49,2.18-4.97,3.23-7.33.02.05.05.1.06.14.03.05.05.1.07.14.18.43.37.87.55,1.3.37.87.73,1.74,1.1,2.61.04.1.05.25,0,.35-.54,1.3-1.11,2.7-1.68,4.12h3.48l1.29,3.24h-6.08c-.37.9-.72,1.77-1.07,2.61-.09.22-.21.39-.47.39-1.25,0-2.5,0-3.81,0h0c1.08-2.43,2.21-5,3.34-7.57Z"/>
  <path class="cls-2" d="m1.66,31.87l-1.37-2.13h.34l1.17,1.83,1.18-1.83h.34l-1.36,2.13v1.38h-.31v-1.38Z"/>
  <path class="cls-2" d="m3.69,32.93c-.23-.24-.35-.55-.35-.93s.12-.69.35-.93c.23-.24.54-.36.91-.36s.67.12.91.36c.23.24.35.55.35.93s-.12.69-.35.93c-.24.24-.54.36-.91.36s-.68-.12-.91-.36Zm.22-1.67c-.18.19-.27.44-.27.74s.09.55.27.74c.18.19.41.29.69.29s.51-.1.69-.29c.18-.19.27-.44.27-.74s-.09-.55-.27-.74c-.18-.19-.41-.29-.69-.29s-.51.1-.69.29Z"/>
  <path class="cls-2" d="m6.55,32.35v-1.6h.29v1.54c0,.22.07.4.2.54.13.14.31.21.52.21.27,0,.49-.11.66-.32.17-.22.25-.49.25-.82v-1.15h.29v2.51h-.29v-.65c-.09.21-.22.38-.39.5-.17.12-.37.19-.6.19-.28,0-.51-.09-.68-.26-.17-.17-.26-.4-.26-.68Z"/>
  <path class="cls-2" d="m9.89,33.25h-.29v-2.51h.29v.74c.08-.24.21-.43.39-.57.18-.14.38-.21.61-.21v.28c-.29,0-.53.11-.72.33-.19.22-.28.49-.28.82v1.12Z"/>
  <path class="cls-2" d="m13.08,33.4c.23,0,.47-.13.72-.38.11-.11.22-.36.2-.44v-.03s-.07,0-.14.07c-.06.06-.11.11-.15.14-.24.22-.49.33-.72.33-.24,0-.36-.15-.36-.46.25-.18.56-.55.92-1.12.24-.36.45-.77.65-1.23.14-.33.2-.66.19-1,0-.24-.27-.39-.51-.39-.05,0-.09,0-.11.01-.14.05-.28.17-.41.37-.2.29-.37.61-.52.94-.16.35-.28.69-.38,1-.16.53-.24.94-.24,1.22,0,.4.05.66.31.82.15.09.34.14.56.14Zm-.42-1.23c.07-.33.18-.66.32-.98.17-.42.37-.85.59-1.28.23-.43.38-.65.45-.65.03,0,.04.03.04.09,0,.03,0,.05,0,.07-.02.27-.15.65-.26.87l-.13.28-.11.25c-.11.25-.27.51-.46.79-.13.19-.28.38-.43.56Z"/>
  <path class="cls-2" d="m14.82,30.84c.08,0,.16-.07.25-.21.09-.14.13-.26.13-.35,0-.09-.02-.16-.06-.2-.07-.07-.14-.11-.2-.11-.09,0-.15.07-.2.19-.05.13-.07.24-.07.34,0,.11.01.2.04.25.03.06.07.09.12.09Zm-.14,2.49c.17-.01.36-.13.57-.36.17-.18.26-.31.27-.38,0-.03-.01-.03-.05,0l-.16.1c-.09.06-.18.12-.26.17-.16.1-.44.21-.57.11-.06-.03-.09-.11-.09-.22,0-.3.12-.71.36-1.21.06-.11,0-.19-.2-.23-.13-.05-.2-.02-.28.19-.13.33-.22.62-.27.87-.07.35-.03.6.12.77.15.16.34.23.56.21Z"/>
  <path class="cls-2" d="m15.29,35.96c.69,0,1.27-.67,1.75-2.01.03-.1.11-.35.21-.78.11-.42.18-.78.24-1.06.01-.04.06-.12.14-.25.09-.13.13-.23.13-.29,0-.07-.03-.13-.1-.19-.05-.05-.19-.1-.22-.09-.07.02-.14.07-.22.14-.18-.19-.37-.29-.57-.29-.09,0-.19.03-.3.1-.3.19-.55.49-.74.88-.16.33-.24.59-.24.78,0,.07,0,.13.03.18.05.17.27.33.46.33.14,0,.34-.13.58-.38.24-.26.45-.51.61-.76-.03.16-.05.26-.06.29-.03.11-.07.24-.1.39-.03.15-.06.24-.07.26-.13.5-.32.98-.58,1.48-.26.5-.61.84-.96.84-.38,0-.57-.29-.72-.82-.01-.05-.03-.06-.05-.03-.05.07-.07.19-.07.35,0,.53.36.92.85.92Zm.5-2.98s-.05-.02-.05-.07c0-.06.04-.16.11-.29.07-.14.14-.25.2-.34l.16-.23c.26-.32.45-.48.58-.48.05,0,.12.04.21.11-.12.2-.33.47-.63.8-.3.33-.49.49-.6.49Z"/>
  <path class="cls-2" d="m20.06,33.33c.06,0,.11,0,.13-.01.13-.03.26-.12.4-.27.14-.15.24-.3.3-.44s.09-.21.05-.21c0,0-.03.01-.05.04-.02,0-.16.16-.27.27-.11.11-.3.23-.44.27-.02,0-.04,0-.07,0-.11,0-.16-.08-.16-.24,0-.11.03-.3.08-.55.05-.25.07-.43.07-.51,0-.09-.07-.2-.16-.31-.1-.11-.19-.17-.28-.17-.15,0-.34.11-.55.33-.22.22-.42.49-.61.8,0-.19.14-.67.43-1.44.3-.78.52-1.31.68-1.6.09-.17.14-.31.14-.39,0-.11-.13-.21-.28-.21-.05,0-.11.06-.19.19-.17.27-.48,1-.93,2.2-.32.88-.49,1.5-.49,1.88,0,.16.14.31.36.31.03,0,.05,0,.07,0,.13-.03.22-.16.32-.35.2-.33.36-.56.47-.7.11-.14.28-.33.51-.55-.09.56-.14.91-.14,1.04,0,.39.29.64.61.64Z"/>
  <path class="cls-2" d="m20.89,33.33c.09,0,.14-.02.16-.09,0-.03-.02-.13-.01-.18,0,0,.04-.19.11-.55.12-.42.22-.69.28-.8l.27-.05.26-.04s.01,0,.02,0c.2-.04.37-.13.51-.26.1-.09.1-.13,0-.13-.13,0-.41.03-.52.03-.07,0-.28.03-.38.03.12-.31.2-.51.26-.63.23-.55.35-.83.35-.84.02-.05,0-.11-.07-.18-.07-.07-.14-.11-.21-.11-.01,0-.03,0-.06.01-.06.03-.14.19-.26.48l-.3.71-.22.57c-.18.04-.34.03-.39.08-.05.03-.06.09-.06.19s.05.16.14.16c.03,0,.13-.01.16,0-.18.45-.28.86-.3,1.2,0,.11,0,.19.03.24.05.1.13.16.22.17Z"/>
  <path class="cls-2" d="m22.87,30.84c.08,0,.16-.07.25-.21.09-.14.13-.26.13-.35,0-.09-.02-.16-.06-.2-.07-.07-.14-.11-.2-.11-.09,0-.15.07-.2.19-.05.13-.07.24-.07.34,0,.11.01.2.04.25.03.06.07.09.12.09Zm-.14,2.49c.17-.01.36-.13.57-.36.17-.18.26-.31.27-.38,0-.03-.01-.03-.05,0l-.16.1c-.09.06-.18.12-.26.17-.16.1-.44.21-.57.11-.06-.03-.09-.11-.09-.22,0-.3.12-.71.36-1.21.06-.11,0-.19-.2-.23-.13-.05-.2-.02-.28.19-.13.33-.22.62-.27.87-.07.35-.03.6.12.77.15.16.34.23.56.21Z"/>
  <path class="cls-2" d="m25.52,33.33c.06,0,.12,0,.17-.02.15-.03.32-.15.5-.34l.04-.05c.1-.12.15-.22.15-.29,0-.02,0-.03-.02-.02l-.24.15-.26.17c-.08.05-.21.1-.3.1-.15,0-.23-.15-.23-.43,0-.14.03-.33.09-.58.05-.25.08-.39.08-.41,0-.13-.19-.28-.3-.28-.07,0-.16.04-.29.13-.13.08-.22.16-.3.24l-.63.63c.13-.35.33-.95.34-.97.05-.11.02-.2-.16-.3-.18-.11-.24-.1-.3.13l-.25.9-.18.65c-.04.13-.06.22-.06.27,0,.06.03.13.09.21.06.07.12.11.18.11.08,0,.18-.09.32-.27.1-.13.26-.3.47-.52,0,0,.53-.55.6-.61-.15.54-.16.93-.02,1.15.11.18.35.27.53.27Z"/>
  <path class="cls-2" d="m26.12,35.96c.69,0,1.27-.67,1.75-2.01.03-.1.11-.35.21-.78.11-.42.18-.78.24-1.06.01-.04.06-.12.14-.25.09-.13.13-.23.13-.29,0-.07-.03-.13-.1-.19-.05-.05-.19-.1-.22-.09-.07.02-.14.07-.22.14-.18-.19-.37-.29-.57-.29-.09,0-.19.03-.3.1-.3.19-.55.49-.74.88-.16.33-.24.59-.24.78,0,.07,0,.13.03.18.05.17.27.33.46.33.14,0,.34-.13.58-.38.24-.26.45-.51.61-.76-.03.16-.05.26-.06.29-.03.11-.07.24-.1.39-.03.15-.06.24-.07.26-.13.5-.32.98-.58,1.48-.26.5-.61.84-.96.84-.38,0-.57-.29-.72-.82-.01-.05-.03-.06-.05-.03-.05.07-.07.19-.07.35,0,.53.36.92.85.92Zm.5-2.98s-.05-.02-.05-.07c0-.06.04-.16.11-.29.07-.14.14-.25.2-.34l.16-.23c.26-.32.45-.48.58-.48.05,0,.12.04.21.11-.12.2-.33.47-.63.8-.3.33-.49.49-.6.49Z"/>
  <path class="cls-2" d="m31.84,32.75l.17.17c-.23.24-.53.37-.91.37-.38,0-.68-.12-.92-.36-.23-.24-.35-.55-.35-.94s.12-.68.35-.92c.23-.24.54-.35.92-.35s.68.12.91.36l-.17.18c-.18-.19-.43-.28-.72-.28s-.52.09-.7.28c-.18.19-.27.43-.27.73s.09.56.27.75c.18.19.42.29.7.29s.53-.09.72-.28Z"/>
  <path class="cls-2" d="m32.84,32.93c-.23-.24-.35-.55-.35-.93s.12-.69.35-.93c.23-.24.54-.36.91-.36s.67.12.91.36c.23.24.35.55.35.93s-.12.69-.35.93c-.24.24-.54.36-.91.36s-.68-.12-.91-.36Zm.22-1.67c-.18.19-.27.44-.27.74s.09.55.27.74c.18.19.41.29.69.29s.51-.1.69-.29c.18-.19.27-.44.27-.74s-.09-.55-.27-.74c-.18-.19-.41-.29-.69-.29s-.51.1-.69.29Z"/>
  <path class="cls-2" d="m35.99,31.89v1.36h-.29v-2.51h.29v.49c.08-.16.2-.29.35-.38.15-.09.32-.14.51-.14s.37.05.51.15c.14.1.24.24.29.41.08-.17.21-.31.37-.41.16-.1.34-.15.54-.15.27,0,.48.09.65.26.16.17.24.4.24.68v1.61h-.29v-1.6c0-.21-.06-.37-.18-.5-.12-.13-.28-.19-.48-.19-.23,0-.42.08-.56.24-.15.16-.22.38-.22.63v1.42h-.29v-1.6c0-.21-.06-.37-.18-.5-.12-.13-.28-.19-.47-.19-.23,0-.42.09-.57.27-.15.18-.23.4-.23.66Z"/>
  <path class="cls-2" d="m40.55,34.38h-.29v-3.64h.29v.66c.07-.21.2-.38.38-.5.18-.12.37-.19.6-.19.31,0,.56.11.76.34.19.23.29.52.29.89,0,.4-.12.73-.36.97-.24.25-.55.37-.94.37-.29,0-.53-.07-.73-.21v1.3Zm0-2.31v.75c.21.14.44.21.7.21.31,0,.55-.1.74-.3.19-.2.28-.46.28-.78,0-.29-.08-.53-.23-.71-.16-.18-.36-.27-.6-.27-.26,0-.47.1-.64.31-.17.21-.25.47-.25.8Z"/>
  <path class="cls-2" d="m43.14,32.59c0-.24.12-.44.35-.6.23-.15.52-.23.88-.23.19,0,.38.02.57.07v-.26c0-.18-.07-.32-.21-.43-.14-.11-.31-.16-.53-.16-.15,0-.3.03-.46.08-.16.05-.28.12-.37.21l-.15-.18c.11-.11.26-.2.45-.27.19-.07.38-.1.56-.1.29,0,.53.08.72.24.19.16.28.36.28.61v1.69h-.29v-.58c-.08.19-.21.34-.38.45-.17.11-.37.17-.58.17-.24,0-.44-.07-.6-.2-.16-.13-.23-.3-.23-.5Zm1.25-.61c-.28,0-.5.05-.68.16-.18.11-.27.25-.27.43,0,.14.06.25.17.34.11.09.26.13.44.13.26,0,.47-.1.64-.29.16-.19.25-.42.25-.69-.16-.06-.34-.09-.55-.09Z"/>
  <path class="cls-2" d="m46.36,33.25h-.29v-2.51h.29v.65c.09-.22.22-.38.39-.5.17-.12.37-.18.59-.18.28,0,.51.09.68.26.18.18.26.4.26.68v1.6h-.29v-1.54c0-.23-.07-.41-.2-.54-.14-.14-.31-.2-.52-.2-.27,0-.49.11-.66.32-.17.21-.26.48-.26.81v1.15Z"/>
  <path class="cls-2" d="m48.74,34.23l.16-.19c.09.08.19.12.29.12s.19-.04.27-.12c.07-.08.15-.21.23-.38l.18-.39-1.13-2.52h.3l.97,2.17.94-2.17h.3l-1.32,3.02c-.1.22-.21.39-.32.49-.11.1-.25.16-.41.16s-.32-.06-.46-.19Z"/>
</svg>
